<?xml version="1.0" encoding="UTF-8" standalone="no"?>
<!-- Created with Inkscape (http://www.inkscape.org/) -->

<svg
   xmlns:dc="http://purl.org/dc/elements/1.1/"
   xmlns:cc="http://creativecommons.org/ns#"
   xmlns:rdf="http://www.w3.org/1999/02/22-rdf-syntax-ns#"
   xmlns:svg="http://www.w3.org/2000/svg"
   xmlns="http://www.w3.org/2000/svg"
   xmlns:sodipodi="http://sodipodi.sourceforge.net/DTD/sodipodi-0.dtd"
   xmlns:inkscape="http://www.inkscape.org/namespaces/inkscape"
   width="488.12241"
   height="91.406174"
   viewBox="0 0 129.14905 24.184551"
   version="1.1"
   id="svg8"
   sodipodi:docname="squigle.svg"
   inkscape:version="0.92.2 (unknown)">
  <defs
     id="defs2" />
  <sodipodi:namedview
     id="base"
     pagecolor="#ffffff"
     bordercolor="#666666"
     borderopacity="1.0"
     inkscape:pageopacity="0.0"
     inkscape:pageshadow="2"
     inkscape:zoom="1.4"
     inkscape:cx="196.81878"
     inkscape:cy="101.93537"
     inkscape:document-units="mm"
     inkscape:current-layer="layer1"
     showgrid="false"
     units="px"
     objecttolerance="1"
     inkscape:window-width="1855"
     inkscape:window-height="1056"
     inkscape:window-x="65"
     inkscape:window-y="24"
     inkscape:window-maximized="1"
     fit-margin-top="0"
     fit-margin-left="0"
     fit-margin-right="0"
     fit-margin-bottom="0" />
  <metadata
     id="metadata5">
    <rdf:RDF>
      <cc:Work
         rdf:about="">
        <dc:format>image/svg+xml</dc:format>
        <dc:type
           rdf:resource="http://purl.org/dc/dcmitype/StillImage" />
        <dc:title></dc:title>
      </cc:Work>
    </rdf:RDF>
  </metadata>
  <g
     inkscape:label="Layer 1"
     inkscape:groupmode="layer"
     id="layer1"
     transform="translate(-14.669697,-243.42719)">
    <path
       style="fill:#ad42e0;fill-opacity:1;stroke:none;stroke-width:0.26458332px;stroke-linecap:butt;stroke-linejoin:miter;stroke-opacity:1"
       d="m 21.998654,260.13026 c 0,0 7.64265,-4.9182 7.256206,1.75776 -0.38644,6.67594 -18.80857,0.25459 -7.255887,-6.23387 14.111233,-7.92543 108.032727,12.97127 118.583307,5.24287 10.55059,-7.72839 -7.57183,-18.82504 -13.40784,-11.12149 -5.83601,7.70355 8.60044,6.03977 8.60044,6.03977 0,0 -8.49919,0.0923 -6.09069,-4.71017 2.80979,-5.60263 14.81655,2.22025 8.23015,7.63822 -4.80459,3.95226 -25.92985,-2.84065 -56.529268,-6.52729 -21.778559,-2.6239 -59.742858,-7.59248 -65.668399,4.3978 -5.619611,11.37124 13.089001,13.72196 15.730964,6.86514 2.46698,-6.40268 -3.960639,-8.4256 -9.448983,-3.34874 z"
       id="path10"
       inkscape:connector-curvature="0"
       sodipodi:nodetypes="czszzcsssssc" />
    <path
       style="opacity:1;vector-effect:none;fill:#ad42e0;fill-opacity:1;stroke:none;stroke-width:0.26458332px;stroke-linecap:butt;stroke-linejoin:miter;stroke-miterlimit:4;stroke-dasharray:none;stroke-dashoffset:0;stroke-opacity:1"
       d="m 81.172199,243.42719 -17.710003,23.05535 4.699702,-0.0571 17.690723,-22.98071 z"
       id="path12-6"
       inkscape:connector-curvature="0"
       sodipodi:nodetypes="ccccc" />
    <path
       style="opacity:1;vector-effect:none;fill:#ad42e0;fill-opacity:1;stroke:none;stroke-width:0.26458332px;stroke-linecap:butt;stroke-linejoin:miter;stroke-miterlimit:4;stroke-dasharray:none;stroke-dashoffset:0;stroke-opacity:1"
       d="m 93.732796,244.55639 -17.710003,23.05535 4.699702,-0.0571 17.690723,-22.98071 z"
       id="path12-6-0"
       inkscape:connector-curvature="0"
       sodipodi:nodetypes="ccccc" />
  </g>
</svg>
