<svg xmlns="http://www.w3.org/2000/svg" width="488.1" height="91.4" viewBox="0 0 129.1 24.2" id="svg8">
  <g id="layer1" fill="#ad26c3" stroke-width=".3">
    <path d="M7.3 16.7s7.7-5 7.3 1.8c-.4 6.6-18.8.2-7.3-6.3 14-8 108 13 118.6 5.3 10.5-7.8-7.7-19-13.5-11.2-5.8 7.8 8.6 6 8.6 6s-8.4.2-6-4.6c2.8-5.6 14.8 2.2 8.2 7.6-4.8 4-26-2.8-56.5-6.5C45 6.2 7 1.2 1 13.2c-5.6 11.4 13 13.7 15.8 7 2.4-6.6-4-8.6-9.5-3.5z" id="path10"/>
    <path d="M66.5 0L48.8 23h4.7L71.2 0z" id="path12-6"/>
    <path d="M79 1L61.5 24.3H66L83.8 1z" id="path12-6-0"/>
  </g>
</svg>